<svg width="212px" height="41px" viewBox="0 0 212 41" version="1.1" xmlns="http://www.w3.org/2000/svg" xmlns:xlink="http://www.w3.org/1999/xlink">
    <path d="M35.0703125,29.1328125 C35.4869812,29.1328125 35.9003886,28.9765641 36.3105469,28.6640625 C36.7207052,28.3515609 37.0494779,28.0325537 37.296875,27.7070313 L37.296875,21.3398438 C34.5885281,22.8372471 33.234375,24.5364488 33.234375,26.4375 C33.234375,27.2708375 33.3938786,27.928383 33.7128906,28.4101563 C34.0319026,28.8919295 34.4843721,29.1328125 35.0703125,29.1328125 Z M32.9804688,33.3710938 C31.5221281,33.3580729 30.3274786,32.7884171 29.3964844,31.6621094 C28.4654901,30.5358017 28,29.2630279 28,27.84375 C28,26.5025975 28.221352,25.3307342 28.6640625,24.328125 C29.106773,23.3255158 29.8326772,22.4661494 30.8417969,21.75 C31.8509165,21.0338506 32.6874967,20.5130225 33.3515625,20.1875 C34.0156283,19.8619775 35.0377535,19.4322943 36.4179688,18.8984375 L37.296875,18.546875 L37.296875,16.6132813 C37.296875,15.5716094 37.1764335,14.8098982 36.9355469,14.328125 C36.6946603,13.8463518 36.2031287,13.6054688 35.4609375,13.6054688 C34.2499939,13.6054688 33.6315105,14.4518145 33.6054688,16.1445313 L33.5273438,17.5898438 L28.2929688,17.3945313 C28.2929688,17.3164059 28.2962239,17.1731781 28.3027344,16.9648438 C28.3092448,16.7565094 28.3125,16.619792 28.3125,16.5546875 C28.4817717,14.1328004 29.2011655,12.3554744 30.4707031,11.2226563 C31.7402407,10.0898381 33.5533736,9.5234375 35.9101562,9.5234375 C38.1888135,9.5234375 39.8782497,10.1419209 40.9785156,11.3789063 C42.0787815,12.6158916 42.6289062,14.3671762 42.6289062,16.6328125 L42.6289062,27.1992188 C42.6289062,28.9700609 42.772134,30.9036354 43.0585938,33 L38.1171875,33 C37.8177068,31.4895758 37.6289066,30.3567746 37.5507812,29.6015625 C37.2252588,30.6692762 36.6816444,31.5644495 35.9199219,32.2871094 C35.1581993,33.0097692 34.1783914,33.3710938 32.9804688,33.3710938 Z M45.1875,33.1367188 L45.1875,29.2304688 C45.6302105,29.2565105 46.0143213,29.246745 46.3398438,29.2011719 C46.6653662,29.1555987 46.9615872,29.0514331 47.2285156,28.8886719 C47.495444,28.7259106 47.7200512,28.5533863 47.9023438,28.3710938 C48.0846363,28.1888012 48.2473951,27.8958354 48.390625,27.4921875 C48.5338549,27.0885396 48.647786,26.7109393 48.7324219,26.359375 C48.8170577,26.0078107 48.8951819,25.5000033 48.9667969,24.8359375 C49.0384118,24.1718717 49.0937498,23.5598986 49.1328125,23 C49.1718752,22.4401014 49.2174477,21.6849006 49.2695312,20.734375 L49.9726562,9.875 L63.4101562,9.875 L63.4101562,33 L57.9609375,33 L57.9609375,13.8007813 L54.6601562,13.8007813 L54.2109375,21.0273438 C54.1197912,22.7200605 53.9993497,24.1653586 53.8496094,25.3632813 C53.699869,26.5612039 53.494793,27.6289016 53.234375,28.5664063 C52.973957,29.5039109 52.6679705,30.2591117 52.3164062,30.8320313 C51.964842,31.4049508 51.5188829,31.8769513 50.9785156,32.2480469 C50.4381483,32.6191425 49.8326856,32.8730462 49.1621094,33.0097656 C48.4915331,33.1464851 47.6875047,33.2148438 46.75,33.2148438 C46.1380178,33.2148438 45.6171896,33.1888023 45.1875,33.1367188 Z M73.078125,29.8554688 L73.15625,29.8554688 C74.953134,29.8424479 76.1835904,29.5983097 76.8476562,29.1230469 C77.5117221,28.6477841 77.84375,27.6744865 77.84375,26.203125 C77.84375,24.796868 77.5247428,23.8463566 76.8867188,23.3515625 C76.2486947,22.8567684 75.05079,22.5963543 73.2929688,22.5703125 L73.078125,22.5703125 L73.078125,29.8554688 Z M67.609375,33 L67.609375,9.875 L73.078125,9.875 L73.078125,19.3476563 L73.4492188,19.3476563 C74.7903713,19.3606771 75.932938,19.4257807 76.8769531,19.5429688 C77.8209683,19.6601568 78.6835898,19.8652329 79.4648438,20.1582031 C80.2460977,20.4511733 80.8678362,20.8548151 81.3300781,21.3691406 C81.79232,21.8834661 82.1471342,22.5377564 82.3945312,23.3320313 C82.6419283,24.1263061 82.765625,25.0833277 82.765625,26.203125 C82.765625,28.7422002 82.042976,30.5097606 80.5976562,31.5058594 C79.1523365,32.5019581 76.6784029,33 73.1757812,33 L67.609375,33 Z M88.2734375,33 L88.2734375,13.7617188 L84.1328125,13.7617188 L84.1328125,9.875 L97.9609375,9.875 L97.9609375,13.7617188 L93.7421875,13.7617188 L93.7421875,33 L88.2734375,33 Z M107.550781,33.3710938 C105.06379,33.3710938 103.211595,32.671231 101.994141,31.2714844 C100.776687,29.8717378 100.167969,27.8698047 100.167969,25.265625 L100.167969,17.6289063 C100.167969,15.0247266 100.776687,13.0227935 101.994141,11.6230469 C103.211595,10.2233003 105.06379,9.5234375 107.550781,9.5234375 C110.050794,9.5234375 111.916009,10.2233003 113.146484,11.6230469 C114.376959,13.0227935 114.992188,15.0247266 114.992188,17.6289063 L114.992188,25.265625 C114.992188,27.8698047 114.376959,29.8717378 113.146484,31.2714844 C111.916009,32.671231 110.050794,33.3710938 107.550781,33.3710938 Z M107.570312,29.5234375 C108.013023,29.5234375 108.374348,29.4257822 108.654297,29.2304688 C108.934246,29.0351553 109.136067,28.7324239 109.259766,28.3222656 C109.383464,27.9121073 109.464844,27.5149759 109.503906,27.1308594 C109.542969,26.7467429 109.5625,26.248701 109.5625,25.6367188 L109.5625,17.2578125 C109.5625,16.7760393 109.552734,16.3756526 109.533203,16.0566406 C109.513672,15.7376286 109.468099,15.3893248 109.396484,15.0117188 C109.324869,14.6341127 109.217449,14.3378917 109.074219,14.1230469 C108.930989,13.9082021 108.735678,13.7259122 108.488281,13.5761719 C108.240884,13.4264315 107.934898,13.3515625 107.570312,13.3515625 C107.127602,13.3515625 106.766277,13.4524729 106.486328,13.6542969 C106.206379,13.8561208 106.004558,14.1621073 105.880859,14.5722656 C105.757161,14.9824239 105.675781,15.3795554 105.636719,15.7636719 C105.597656,16.1477884 105.578125,16.6458303 105.578125,17.2578125 L105.578125,25.6367188 C105.578125,26.118492 105.587891,26.5188786 105.607422,26.8378906 C105.626953,27.1569026 105.672526,27.5019513 105.744141,27.8730469 C105.815756,28.2441425 105.923176,28.5371083 106.066406,28.7519531 C106.209636,28.9667979 106.404947,29.1490878 106.652344,29.2988281 C106.899741,29.4485685 107.205727,29.5234375 107.570312,29.5234375 Z M118.742188,33 L118.742188,9.875 L124.210938,9.875 L124.210938,19.1914063 L128.722656,19.1914063 L128.722656,9.875 L134.191406,9.875 L134.191406,33 L128.722656,33 L128.722656,23.0585938 L124.210938,23.0585938 L124.210938,33 L118.742188,33 Z M145.324219,33.3710938 C142.837227,33.3710938 140.985032,32.671231 139.767578,31.2714844 C138.550124,29.8717378 137.941406,27.8698047 137.941406,25.265625 L137.941406,17.6289063 C137.941406,15.0247266 138.550124,13.0227935 139.767578,11.6230469 C140.985032,10.2233003 142.837227,9.5234375 145.324219,9.5234375 C147.824231,9.5234375 149.689447,10.2233003 150.919922,11.6230469 C152.150397,13.0227935 152.765625,15.0247266 152.765625,17.6289063 L152.765625,25.265625 C152.765625,27.8698047 152.150397,29.8717378 150.919922,31.2714844 C149.689447,32.671231 147.824231,33.3710938 145.324219,33.3710938 Z M145.34375,29.5234375 C145.786461,29.5234375 146.147785,29.4257822 146.427734,29.2304688 C146.707684,29.0351553 146.909505,28.7324239 147.033203,28.3222656 C147.156902,27.9121073 147.238281,27.5149759 147.277344,27.1308594 C147.316406,26.7467429 147.335938,26.248701 147.335938,25.6367188 L147.335938,17.2578125 C147.335938,16.7760393 147.326172,16.3756526 147.306641,16.0566406 C147.287109,15.7376286 147.241537,15.3893248 147.169922,15.0117188 C147.098307,14.6341127 146.990886,14.3378917 146.847656,14.1230469 C146.704426,13.9082021 146.509116,13.7259122 146.261719,13.5761719 C146.014322,13.4264315 145.708335,13.3515625 145.34375,13.3515625 C144.901039,13.3515625 144.539715,13.4524729 144.259766,13.6542969 C143.979816,13.8561208 143.777995,14.1621073 143.654297,14.5722656 C143.530598,14.9824239 143.449219,15.3795554 143.410156,15.7636719 C143.371094,16.1477884 143.351562,16.6458303 143.351562,17.2578125 L143.351562,25.6367188 C143.351562,26.118492 143.361328,26.5188786 143.380859,26.8378906 C143.400391,27.1569026 143.445963,27.5019513 143.517578,27.8730469 C143.589193,28.2441425 143.696614,28.5371083 143.839844,28.7519531 C143.983074,28.9667979 144.178384,29.1490878 144.425781,29.2988281 C144.673178,29.4485685 144.979165,29.5234375 145.34375,29.5234375 Z M156.4375,33 L156.613281,9.875 L160.636719,9.875 L165.558594,22.4335938 L170.480469,9.875 L174.503906,9.875 L174.679688,33 L170.285156,33 L170.285156,20.3046875 L166.378906,30.1679688 L164.757812,30.1679688 L160.851562,20.3242188 L160.851562,33 L156.4375,33 Z M183.800781,18.9765625 L187.746094,18.9765625 L187.746094,16.7695313 C187.746094,15.5976504 187.599611,14.757815 187.306641,14.25 C187.01367,13.742185 186.496097,13.4882813 185.753906,13.4882813 C184.998694,13.4882813 184.484376,13.7747367 184.210938,14.3476563 C183.937499,14.9205758 183.800781,15.962232 183.800781,17.4726563 L183.800781,18.9765625 Z M185.8125,33.3710938 C183.169258,33.3710938 181.268235,32.6419344 180.109375,31.1835938 C178.950515,29.7252531 178.371094,27.5703268 178.371094,24.71875 L178.371094,18.1757813 C178.371094,15.3242045 178.957025,13.1692781 180.128906,11.7109375 C181.300787,10.2525969 183.188789,9.5234375 185.792969,9.5234375 C187.173184,9.5234375 188.335282,9.7252584 189.279297,10.1289063 C190.223312,10.5325541 190.958982,11.1445271 191.486328,11.9648438 C192.013675,12.7851604 192.38802,13.7324165 192.609375,14.8066406 C192.83073,15.8808647 192.941406,17.1731695 192.941406,18.6835938 L192.941406,21.7109375 L183.800781,21.7109375 L183.800781,25.1875 C183.800781,25.6692732 183.804036,26.0436185 183.810547,26.3105469 C183.817057,26.5774753 183.839844,26.8997377 183.878906,27.2773438 C183.917969,27.6549498 183.979817,27.9479156 184.064453,28.15625 C184.149089,28.3645844 184.26302,28.5761708 184.40625,28.7910156 C184.54948,29.0058604 184.73828,29.1588537 184.972656,29.25 C185.207032,29.3411463 185.480467,29.3867188 185.792969,29.3867188 C186.522139,29.3867188 187.029946,29.1295599 187.316406,28.6152344 C187.602866,28.1009089 187.746094,27.3554736 187.746094,26.3789063 L187.746094,25.0507813 L192.921875,25.0507813 L192.921875,25.96875 C192.921875,28.3645953 192.326178,30.1972593 191.134766,31.4667969 C189.943353,32.7363345 188.169283,33.3710938 185.8125,33.3710938 Z M204.542969,29.4453125 C204.946617,29.4453125 205.285155,29.3313813 205.558594,29.1035156 C205.832033,28.8756499 206.030598,28.543622 206.154297,28.1074219 C206.277995,27.6712218 206.36263,27.2220075 206.408203,26.7597656 C206.453776,26.2975237 206.476562,25.7408887 206.476562,25.0898438 L206.476562,17.1210938 C206.476562,16.5872369 206.447266,16.1087261 206.388672,15.6855469 C206.330078,15.2623677 206.229167,14.8587259 206.085938,14.4746094 C205.942708,14.0904929 205.727866,13.7975271 205.441406,13.5957031 C205.154946,13.3938792 204.809898,13.2994791 204.40625,13.3125 C203.690101,13.3255209 202.9349,13.6315074 202.140625,14.2304688 L202.140625,28.7226563 C202.921879,29.2044295 203.722652,29.4453125 204.542969,29.4453125 Z M196.671875,40.6171875 L196.671875,9.875 L202.140625,9.875 L202.140625,11.6523438 C203.572924,10.2200449 205.128898,9.5104166 206.808594,9.5234375 C207.62891,9.5364584 208.354815,9.72525859 208.986328,10.0898438 C209.617842,10.4544289 210.112628,10.9068983 210.470703,11.4472656 C210.828778,11.9876329 211.121744,12.6256474 211.349609,13.3613281 C211.577475,14.0970089 211.730468,14.7805958 211.808594,15.4121094 C211.886719,16.0436229 211.925781,16.6848926 211.925781,17.3359375 L211.925781,24.9140625 C211.925781,26.0859434 211.828126,27.1634065 211.632812,28.1464844 C211.437499,29.1295622 211.131513,30.0214804 210.714844,30.8222656 C210.298175,31.6230509 209.728519,32.2480446 209.005859,32.6972656 C208.2832,33.1464866 207.433599,33.3710938 206.457031,33.3710938 C205.024732,33.3710938 203.585945,32.6744861 202.140625,31.28125 L202.140625,40.6171875 L196.671875,40.6171875 Z" id="altonomer" fill="#000000"></path>
    <path d="M7.3046875,28.8007812 L16.6015625,28.8007812 L16.6015625,4.875 L12.5390625,4.875 L12.2460938,11.7695312 C12.1679684,13.5664152 12.0540372,15.2005135 11.9042969,16.671875 C11.7545565,18.1432365 11.5983081,19.3867137 11.4355469,20.4023438 C11.2727856,21.4179738 11.0481785,22.3587196 10.7617188,23.2246094 C10.475259,24.0904991 10.2311208,24.7675757 10.0292969,25.2558594 C9.82747295,25.7441431 9.53450713,26.2454401 9.15039062,26.7597656 C8.76627412,27.2740911 8.47005312,27.6386708 8.26171875,27.8535156 C8.05338438,28.0683604 7.73437715,28.3841125 7.3046875,28.8007812 Z M0.546875,39.4257812 L0.546875,28.8007813 L1.8359375,28.8007813 C2.53906602,28.3841125 3.15429424,27.8242223 3.68164063,27.1210938 C4.20898701,26.4179652 4.72004961,25.4088607 5.21484375,24.09375 C5.70963789,22.7786393 6.12304521,21.014334 6.45507813,18.8007812 C6.78711104,16.5872285 7.03775957,13.9179844 7.20703125,10.7929688 L7.83203125,0.6171875 L22.2851563,0.6171875 L22.2851563,28.8007813 L25.703125,28.8007813 L25.703125,39.4257812 L21.5039063,39.4257812 L21.1132813,33 L5.25390625,33 L4.86328125,39.4257812 L0.546875,39.4257812 Z" id="D" fill="#E23D31"></path>
</svg>